<svg width="586" height="160" viewBox="0 0 586 160" fill="none" xmlns="http://www.w3.org/2000/svg">
<rect x="266" width="320" height="160" fill="#156963"/>
<g opacity="0.5">
<path d="M317.52 63.5V46.7H319.488L330.6 60.5H329.568V46.7H331.968V63.5H330L318.888 49.7H319.92V63.5H317.52ZM342.324 63.644C340.964 63.644 339.764 63.364 338.724 62.804C337.7 62.244 336.9 61.476 336.324 60.5C335.764 59.524 335.484 58.404 335.484 57.14C335.484 55.876 335.756 54.756 336.3 53.78C336.86 52.804 337.62 52.044 338.58 51.5C339.556 50.94 340.652 50.66 341.868 50.66C343.1 50.66 344.188 50.932 345.132 51.476C346.076 52.02 346.812 52.788 347.34 53.78C347.884 54.756 348.156 55.9 348.156 57.212C348.156 57.308 348.148 57.42 348.132 57.548C348.132 57.676 348.124 57.796 348.108 57.908H337.284V56.252H346.908L345.972 56.828C345.988 56.012 345.82 55.284 345.468 54.644C345.116 54.004 344.628 53.508 344.004 53.156C343.396 52.788 342.684 52.604 341.868 52.604C341.068 52.604 340.356 52.788 339.732 53.156C339.108 53.508 338.62 54.012 338.268 54.668C337.916 55.308 337.74 56.044 337.74 56.876V57.26C337.74 58.108 337.932 58.868 338.316 59.54C338.716 60.196 339.268 60.708 339.972 61.076C340.676 61.444 341.484 61.628 342.396 61.628C343.148 61.628 343.828 61.5 344.436 61.244C345.06 60.988 345.604 60.604 346.068 60.092L347.34 61.58C346.764 62.252 346.044 62.764 345.18 63.116C344.332 63.468 343.38 63.644 342.324 63.644ZM349.156 63.5L354.628 56.396L354.604 57.572L349.396 50.78H351.964L355.948 56.012H354.964L358.948 50.78H361.468L356.188 57.62L356.212 56.396L361.732 63.5H359.116L354.916 57.932L355.852 58.076L351.724 63.5H349.156ZM368.614 63.644C367.334 63.644 366.342 63.3 365.638 62.612C364.934 61.924 364.582 60.94 364.582 59.66V47.996H366.886V59.564C366.886 60.252 367.054 60.78 367.39 61.148C367.742 61.516 368.238 61.7 368.878 61.7C369.598 61.7 370.198 61.5 370.678 61.1L371.398 62.756C371.046 63.06 370.622 63.284 370.126 63.428C369.646 63.572 369.142 63.644 368.614 63.644ZM362.422 52.676V50.78H370.534V52.676H362.422Z" fill="#F2F2F2"/>
<g clip-path="url(#clip0_0_72)">
<path d="M386.667 56.3334H402.48L397.64 62.1467C397.414 62.419 397.305 62.77 397.337 63.1226C397.37 63.4752 397.541 63.8004 397.813 64.0267C398.086 64.253 398.437 64.3619 398.789 64.3294C399.142 64.2969 399.467 64.1256 399.693 63.8534L406.36 55.8534C406.405 55.7897 406.445 55.7229 406.48 55.6534C406.48 55.5867 406.48 55.5467 406.573 55.48C406.634 55.3271 406.665 55.1644 406.667 55C406.665 54.8356 406.634 54.6729 406.573 54.52C406.573 54.4534 406.573 54.4134 406.48 54.3467C406.445 54.2772 406.405 54.2103 406.36 54.1467L399.693 46.1467C399.568 45.9962 399.411 45.8751 399.233 45.7922C399.056 45.7092 398.862 45.6664 398.667 45.6667C398.355 45.6661 398.053 45.7746 397.813 45.9734C397.678 46.0853 397.567 46.2228 397.485 46.3779C397.403 46.533 397.353 46.7028 397.337 46.8774C397.32 47.052 397.339 47.2281 397.391 47.3956C397.443 47.5631 397.528 47.7186 397.64 47.8534L402.48 53.6667H386.667C386.313 53.6667 385.974 53.8072 385.724 54.0572C385.474 54.3073 385.333 54.6464 385.333 55C385.333 55.3536 385.474 55.6928 385.724 55.9428C385.974 56.1929 386.313 56.3334 386.667 56.3334Z" fill="#F2F2F2"/>
</g>
</g>
<path d="M318.36 114V91.6H327.096C329.059 91.6 330.733 91.9093 332.12 92.528C333.507 93.1467 334.573 94.0427 335.32 95.216C336.067 96.3893 336.44 97.7867 336.44 99.408C336.44 101.029 336.067 102.427 335.32 103.6C334.573 104.752 333.507 105.637 332.12 106.256C330.733 106.875 329.059 107.184 327.096 107.184H320.12L321.56 105.712V114H318.36ZM333.336 114L327.64 105.872H331.064L336.824 114H333.336ZM321.56 106.032L320.12 104.464H327C329.048 104.464 330.595 104.027 331.64 103.152C332.707 102.256 333.24 101.008 333.24 99.408C333.24 97.808 332.707 96.5707 331.64 95.696C330.595 94.8213 329.048 94.384 327 94.384H320.12L321.56 92.784V106.032ZM351.534 114V110.416L351.374 109.744V103.632C351.374 102.331 350.99 101.328 350.222 100.624C349.475 99.8987 348.344 99.536 346.83 99.536C345.827 99.536 344.846 99.7067 343.886 100.048C342.926 100.368 342.115 100.805 341.454 101.36L340.174 99.056C341.048 98.352 342.094 97.8187 343.31 97.456C344.547 97.072 345.838 96.88 347.182 96.88C349.507 96.88 351.299 97.4453 352.558 98.576C353.816 99.7067 354.446 101.435 354.446 103.76V114H351.534ZM345.966 114.192C344.707 114.192 343.598 113.979 342.638 113.552C341.699 113.125 340.974 112.539 340.462 111.792C339.95 111.024 339.694 110.16 339.694 109.2C339.694 108.283 339.907 107.451 340.334 106.704C340.782 105.957 341.496 105.36 342.478 104.912C343.48 104.464 344.824 104.24 346.51 104.24H351.886V106.448H346.638C345.102 106.448 344.067 106.704 343.534 107.216C343 107.728 342.734 108.347 342.734 109.072C342.734 109.904 343.064 110.576 343.726 111.088C344.387 111.579 345.304 111.824 346.478 111.824C347.63 111.824 348.632 111.568 349.486 111.056C350.36 110.544 350.99 109.797 351.374 108.816L351.982 110.928C351.576 111.931 350.862 112.731 349.838 113.328C348.814 113.904 347.523 114.192 345.966 114.192ZM369.187 96.88C370.573 96.88 371.789 97.1467 372.835 97.68C373.901 98.2133 374.733 99.024 375.331 100.112C375.928 101.2 376.227 102.576 376.227 104.24V114H373.155V104.592C373.155 102.949 372.749 101.712 371.939 100.88C371.149 100.048 370.029 99.632 368.579 99.632C367.491 99.632 366.541 99.8453 365.731 100.272C364.92 100.699 364.291 101.328 363.843 102.16C363.416 102.992 363.203 104.027 363.203 105.264V114H360.131V90.256H363.203V101.616L362.595 100.4C363.149 99.2907 364.003 98.4267 365.155 97.808C366.307 97.1893 367.651 96.88 369.187 96.88ZM392.44 114V110.416L392.28 109.744V103.632C392.28 102.331 391.896 101.328 391.128 100.624C390.381 99.8987 389.251 99.536 387.736 99.536C386.733 99.536 385.752 99.7067 384.792 100.048C383.832 100.368 383.021 100.805 382.36 101.36L381.08 99.056C381.955 98.352 383 97.8187 384.216 97.456C385.453 97.072 386.744 96.88 388.088 96.88C390.413 96.88 392.205 97.4453 393.464 98.576C394.723 99.7067 395.352 101.435 395.352 103.76V114H392.44ZM386.872 114.192C385.613 114.192 384.504 113.979 383.544 113.552C382.605 113.125 381.88 112.539 381.368 111.792C380.856 111.024 380.6 110.16 380.6 109.2C380.6 108.283 380.813 107.451 381.24 106.704C381.688 105.957 382.403 105.36 383.384 104.912C384.387 104.464 385.731 104.24 387.416 104.24H392.792V106.448H387.544C386.008 106.448 384.973 106.704 384.44 107.216C383.907 107.728 383.64 108.347 383.64 109.072C383.64 109.904 383.971 110.576 384.632 111.088C385.293 111.579 386.211 111.824 387.384 111.824C388.536 111.824 389.539 111.568 390.392 111.056C391.267 110.544 391.896 109.797 392.28 108.816L392.888 110.928C392.483 111.931 391.768 112.731 390.744 113.328C389.72 113.904 388.429 114.192 386.872 114.192ZM405.901 114.192C404.493 114.192 403.149 114 401.869 113.616C400.61 113.232 399.618 112.763 398.893 112.208L400.173 109.776C400.898 110.267 401.794 110.683 402.861 111.024C403.928 111.365 405.016 111.536 406.125 111.536C407.554 111.536 408.578 111.333 409.197 110.928C409.837 110.523 410.157 109.957 410.157 109.232C410.157 108.699 409.965 108.283 409.581 107.984C409.197 107.685 408.685 107.461 408.045 107.312C407.426 107.163 406.733 107.035 405.965 106.928C405.197 106.8 404.429 106.651 403.661 106.48C402.893 106.288 402.189 106.032 401.549 105.712C400.909 105.371 400.397 104.912 400.013 104.336C399.629 103.739 399.437 102.949 399.437 101.968C399.437 100.944 399.725 100.048 400.301 99.28C400.877 98.512 401.688 97.9253 402.733 97.52C403.8 97.0933 405.058 96.88 406.509 96.88C407.618 96.88 408.738 97.0187 409.869 97.296C411.021 97.552 411.96 97.9253 412.685 98.416L411.373 100.848C410.605 100.336 409.805 99.984 408.973 99.792C408.141 99.6 407.309 99.504 406.477 99.504C405.133 99.504 404.13 99.728 403.469 100.176C402.808 100.603 402.477 101.157 402.477 101.84C402.477 102.416 402.669 102.864 403.053 103.184C403.458 103.483 403.97 103.717 404.589 103.888C405.229 104.059 405.933 104.208 406.701 104.336C407.469 104.443 408.237 104.592 409.005 104.784C409.773 104.955 410.466 105.2 411.085 105.52C411.725 105.84 412.237 106.288 412.621 106.864C413.026 107.44 413.229 108.208 413.229 109.168C413.229 110.192 412.93 111.077 412.333 111.824C411.736 112.571 410.893 113.157 409.805 113.584C408.717 113.989 407.416 114.192 405.901 114.192ZM417.068 114V97.04H420.14V114H417.068ZM418.604 93.776C418.007 93.776 417.505 93.584 417.1 93.2C416.716 92.816 416.524 92.3467 416.524 91.792C416.524 91.216 416.716 90.736 417.1 90.352C417.505 89.968 418.007 89.776 418.604 89.776C419.201 89.776 419.692 89.968 420.076 90.352C420.481 90.7147 420.684 91.1733 420.684 91.728C420.684 92.304 420.492 92.7947 420.108 93.2C419.724 93.584 419.223 93.776 418.604 93.776ZM436.534 114V110.416L436.374 109.744V103.632C436.374 102.331 435.99 101.328 435.222 100.624C434.475 99.8987 433.344 99.536 431.83 99.536C430.827 99.536 429.846 99.7067 428.886 100.048C427.926 100.368 427.115 100.805 426.454 101.36L425.174 99.056C426.048 98.352 427.094 97.8187 428.31 97.456C429.547 97.072 430.838 96.88 432.182 96.88C434.507 96.88 436.299 97.4453 437.558 98.576C438.816 99.7067 439.446 101.435 439.446 103.76V114H436.534ZM430.966 114.192C429.707 114.192 428.598 113.979 427.638 113.552C426.699 113.125 425.974 112.539 425.462 111.792C424.95 111.024 424.694 110.16 424.694 109.2C424.694 108.283 424.907 107.451 425.334 106.704C425.782 105.957 426.496 105.36 427.478 104.912C428.48 104.464 429.824 104.24 431.51 104.24H436.886V106.448H431.638C430.102 106.448 429.067 106.704 428.534 107.216C428 107.728 427.734 108.347 427.734 109.072C427.734 109.904 428.064 110.576 428.726 111.088C429.387 111.579 430.304 111.824 431.478 111.824C432.63 111.824 433.632 111.568 434.486 111.056C435.36 110.544 435.99 109.797 436.374 108.816L436.982 110.928C436.576 111.931 435.862 112.731 434.838 113.328C433.814 113.904 432.523 114.192 430.966 114.192ZM454.172 114V91.6H462.908C464.871 91.6 466.546 91.9093 467.932 92.528C469.319 93.1467 470.386 94.0427 471.132 95.216C471.879 96.3893 472.252 97.7867 472.252 99.408C472.252 101.029 471.879 102.427 471.132 103.6C470.386 104.752 469.319 105.648 467.932 106.288C466.546 106.907 464.871 107.216 462.908 107.216H455.932L457.372 105.712V114H454.172ZM457.372 106.032L455.932 104.432H462.812C464.86 104.432 466.407 103.995 467.452 103.12C468.519 102.245 469.052 101.008 469.052 99.408C469.052 97.808 468.519 96.5707 467.452 95.696C466.407 94.8213 464.86 94.384 462.812 94.384H455.932L457.372 92.784V106.032ZM476.818 114V90.256H479.89V114H476.818ZM496.284 114V110.416L496.124 109.744V103.632C496.124 102.331 495.74 101.328 494.972 100.624C494.225 99.8987 493.094 99.536 491.58 99.536C490.577 99.536 489.596 99.7067 488.636 100.048C487.676 100.368 486.865 100.805 486.204 101.36L484.924 99.056C485.798 98.352 486.844 97.8187 488.06 97.456C489.297 97.072 490.588 96.88 491.932 96.88C494.257 96.88 496.049 97.4453 497.308 98.576C498.566 99.7067 499.196 101.435 499.196 103.76V114H496.284ZM490.716 114.192C489.457 114.192 488.348 113.979 487.388 113.552C486.449 113.125 485.724 112.539 485.212 111.792C484.7 111.024 484.444 110.16 484.444 109.2C484.444 108.283 484.657 107.451 485.084 106.704C485.532 105.957 486.246 105.36 487.228 104.912C488.23 104.464 489.574 104.24 491.26 104.24H496.636V106.448H491.388C489.852 106.448 488.817 106.704 488.284 107.216C487.75 107.728 487.484 108.347 487.484 109.072C487.484 109.904 487.814 110.576 488.476 111.088C489.137 111.579 490.054 111.824 491.228 111.824C492.38 111.824 493.382 111.568 494.236 111.056C495.11 110.544 495.74 109.797 496.124 108.816L496.732 110.928C496.326 111.931 495.612 112.731 494.588 113.328C493.564 113.904 492.273 114.192 490.716 114.192ZM513.937 96.88C515.323 96.88 516.539 97.1467 517.585 97.68C518.651 98.2133 519.483 99.024 520.081 100.112C520.678 101.2 520.977 102.576 520.977 104.24V114H517.905V104.592C517.905 102.949 517.499 101.712 516.689 100.88C515.899 100.048 514.779 99.632 513.329 99.632C512.241 99.632 511.291 99.8453 510.481 100.272C509.67 100.699 509.041 101.328 508.593 102.16C508.166 102.992 507.953 104.027 507.953 105.264V114H504.881V97.04H507.825V101.616L507.345 100.4C507.899 99.2907 508.753 98.4267 509.905 97.808C511.057 97.1893 512.401 96.88 513.937 96.88ZM532.486 114.192C530.779 114.192 529.457 113.733 528.518 112.816C527.579 111.899 527.11 110.587 527.11 108.88V93.328H530.182V108.752C530.182 109.669 530.406 110.373 530.854 110.864C531.323 111.355 531.985 111.6 532.838 111.6C533.798 111.6 534.598 111.333 535.238 110.8L536.198 113.008C535.729 113.413 535.163 113.712 534.502 113.904C533.862 114.096 533.19 114.192 532.486 114.192ZM524.23 99.568V97.04H535.046V99.568H524.23Z" fill="white"/>
<g opacity="0.5">
<g clip-path="url(#clip1_0_72)">
<path d="M25.3332 51.6666H9.51982L14.3598 45.8533C14.5861 45.581 14.695 45.23 14.6625 44.8774C14.63 44.5248 14.4588 44.1996 14.1865 43.9733C13.9142 43.747 13.5632 43.6381 13.2106 43.6706C12.858 43.7031 12.5328 43.8744 12.3065 44.1466L5.63982 52.1466C5.59497 52.2103 5.55486 52.2771 5.51982 52.3466C5.51982 52.4133 5.51982 52.4533 5.42649 52.52C5.36605 52.6729 5.33441 52.8356 5.33315 53C5.33441 53.1644 5.36605 53.3271 5.42649 53.48C5.42649 53.5466 5.42649 53.5866 5.51982 53.6533C5.55486 53.7228 5.59497 53.7897 5.63982 53.8533L12.3065 61.8533C12.4319 62.0038 12.5888 62.1249 12.7663 62.2078C12.9437 62.2908 13.1373 62.3336 13.3332 62.3333C13.6447 62.3339 13.9466 62.2254 14.1865 62.0266C14.3215 61.9147 14.4331 61.7772 14.5149 61.6221C14.5967 61.467 14.6471 61.2972 14.6632 61.1226C14.6793 60.948 14.6608 60.7719 14.6087 60.6044C14.5567 60.4369 14.4721 60.2814 14.3598 60.1466L9.51982 54.3333H25.3332C25.6868 54.3333 26.0259 54.1928 26.276 53.9428C26.526 53.6927 26.6665 53.3536 26.6665 53C26.6665 52.6464 26.526 52.3072 26.276 52.0572C26.0259 51.8071 25.6868 51.6666 25.3332 51.6666Z" fill="#333333"/>
</g>
<path d="M42.5199 61.5V44.7H49.0719C50.5439 44.7 51.7999 44.932 52.8399 45.396C53.8799 45.86 54.6799 46.532 55.2399 47.412C55.7999 48.292 56.0799 49.34 56.0799 50.556C56.0799 51.772 55.7999 52.82 55.2399 53.7C54.6799 54.564 53.8799 55.236 52.8399 55.716C51.7999 56.18 50.5439 56.412 49.0719 56.412H43.8399L44.9199 55.284V61.5H42.5199ZM44.9199 55.524L43.8399 54.324H48.9999C50.5359 54.324 51.6959 53.996 52.4799 53.34C53.2799 52.684 53.6799 51.756 53.6799 50.556C53.6799 49.356 53.2799 48.428 52.4799 47.772C51.6959 47.116 50.5359 46.788 48.9999 46.788H43.8399L44.9199 45.588V55.524ZM59.0354 61.5V48.78H61.2434V52.236L61.0274 51.372C61.3794 50.492 61.9714 49.82 62.8034 49.356C63.6354 48.892 64.6594 48.66 65.8754 48.66V50.892C65.7794 50.876 65.6834 50.868 65.5874 50.868C65.5074 50.868 65.4274 50.868 65.3474 50.868C64.1154 50.868 63.1394 51.236 62.4194 51.972C61.6994 52.708 61.3394 53.772 61.3394 55.164V61.5H59.0354ZM74.2619 61.644C72.9019 61.644 71.7019 61.364 70.6619 60.804C69.6379 60.244 68.8379 59.476 68.2619 58.5C67.7019 57.524 67.4219 56.404 67.4219 55.14C67.4219 53.876 67.6939 52.756 68.2379 51.78C68.7979 50.804 69.5579 50.044 70.5179 49.5C71.4939 48.94 72.5899 48.66 73.8059 48.66C75.0379 48.66 76.1259 48.932 77.0699 49.476C78.0139 50.02 78.7499 50.788 79.2779 51.78C79.8219 52.756 80.0939 53.9 80.0939 55.212C80.0939 55.308 80.0859 55.42 80.0699 55.548C80.0699 55.676 80.0619 55.796 80.0459 55.908H69.2219V54.252H78.8459L77.9099 54.828C77.9259 54.012 77.7579 53.284 77.4059 52.644C77.0539 52.004 76.5659 51.508 75.9419 51.156C75.3339 50.788 74.6219 50.604 73.8059 50.604C73.0059 50.604 72.2939 50.788 71.6699 51.156C71.0459 51.508 70.5579 52.012 70.2059 52.668C69.8539 53.308 69.6779 54.044 69.6779 54.876V55.26C69.6779 56.108 69.8699 56.868 70.2539 57.54C70.6539 58.196 71.2059 58.708 71.9099 59.076C72.6139 59.444 73.4219 59.628 74.3339 59.628C75.0859 59.628 75.7659 59.5 76.3739 59.244C76.9979 58.988 77.5419 58.604 78.0059 58.092L79.2779 59.58C78.7019 60.252 77.9819 60.764 77.1179 61.116C76.2699 61.468 75.3179 61.644 74.2619 61.644ZM86.3949 61.5L80.8269 48.78H83.2269L88.1709 60.3H87.0189L92.0589 48.78H94.3149L88.7469 61.5H86.3949ZM96.4651 61.5V48.78H98.7691V61.5H96.4651ZM97.6171 46.332C97.1691 46.332 96.7931 46.188 96.4891 45.9C96.2011 45.612 96.0571 45.26 96.0571 44.844C96.0571 44.412 96.2011 44.052 96.4891 43.764C96.7931 43.476 97.1691 43.332 97.6171 43.332C98.0651 43.332 98.4331 43.476 98.7211 43.764C99.0251 44.036 99.1771 44.38 99.1771 44.796C99.1771 45.228 99.0331 45.596 98.7451 45.9C98.4571 46.188 98.0811 46.332 97.6171 46.332ZM108.616 61.644C107.336 61.644 106.2 61.364 105.208 60.804C104.216 60.244 103.432 59.476 102.856 58.5C102.28 57.508 101.992 56.388 101.992 55.14C101.992 53.876 102.28 52.756 102.856 51.78C103.432 50.804 104.216 50.044 105.208 49.5C106.2 48.94 107.336 48.66 108.616 48.66C109.88 48.66 111.008 48.94 112 49.5C113.008 50.044 113.792 50.804 114.352 51.78C114.928 52.74 115.216 53.86 115.216 55.14C115.216 56.404 114.928 57.524 114.352 58.5C113.792 59.476 113.008 60.244 112 60.804C111.008 61.364 109.88 61.644 108.616 61.644ZM108.616 59.628C109.432 59.628 110.16 59.444 110.8 59.076C111.456 58.708 111.968 58.188 112.336 57.516C112.704 56.828 112.888 56.036 112.888 55.14C112.888 54.228 112.704 53.444 112.336 52.788C111.968 52.116 111.456 51.596 110.8 51.228C110.16 50.86 109.432 50.676 108.616 50.676C107.8 50.676 107.072 50.86 106.432 51.228C105.792 51.596 105.28 52.116 104.896 52.788C104.512 53.444 104.32 54.228 104.32 55.14C104.32 56.036 104.512 56.828 104.896 57.516C105.28 58.188 105.792 58.708 106.432 59.076C107.072 59.444 107.8 59.628 108.616 59.628ZM123.755 61.644C122.667 61.644 121.707 61.444 120.875 61.044C120.059 60.644 119.419 60.036 118.955 59.22C118.507 58.388 118.283 57.348 118.283 56.1V48.78H120.587V55.836C120.587 57.084 120.883 58.02 121.475 58.644C122.083 59.268 122.931 59.58 124.019 59.58C124.819 59.58 125.515 59.42 126.107 59.1C126.699 58.764 127.155 58.284 127.475 57.66C127.795 57.02 127.955 56.252 127.955 55.356V48.78H130.259V61.5H128.075V58.068L128.435 58.98C128.019 59.828 127.395 60.484 126.563 60.948C125.731 61.412 124.795 61.644 123.755 61.644ZM138.293 61.644C137.237 61.644 136.229 61.5 135.269 61.212C134.325 60.924 133.581 60.572 133.037 60.156L133.997 58.332C134.541 58.7 135.213 59.012 136.013 59.268C136.813 59.524 137.629 59.652 138.461 59.652C139.533 59.652 140.301 59.5 140.765 59.196C141.245 58.892 141.485 58.468 141.485 57.924C141.485 57.524 141.341 57.212 141.053 56.988C140.765 56.764 140.381 56.596 139.901 56.484C139.437 56.372 138.917 56.276 138.341 56.196C137.765 56.1 137.189 55.988 136.613 55.86C136.037 55.716 135.509 55.524 135.029 55.284C134.549 55.028 134.165 54.684 133.877 54.252C133.589 53.804 133.445 53.212 133.445 52.476C133.445 51.708 133.661 51.036 134.093 50.46C134.525 49.884 135.133 49.444 135.917 49.14C136.717 48.82 137.661 48.66 138.749 48.66C139.581 48.66 140.421 48.764 141.269 48.972C142.133 49.164 142.837 49.444 143.381 49.812L142.397 51.636C141.821 51.252 141.221 50.988 140.597 50.844C139.973 50.7 139.349 50.628 138.725 50.628C137.717 50.628 136.965 50.796 136.469 51.132C135.973 51.452 135.725 51.868 135.725 52.38C135.725 52.812 135.869 53.148 136.157 53.388C136.461 53.612 136.845 53.788 137.309 53.916C137.789 54.044 138.317 54.156 138.893 54.252C139.469 54.332 140.045 54.444 140.621 54.588C141.197 54.716 141.717 54.9 142.181 55.14C142.661 55.38 143.045 55.716 143.333 56.148C143.637 56.58 143.789 57.156 143.789 57.876C143.789 58.644 143.565 59.308 143.117 59.868C142.669 60.428 142.037 60.868 141.221 61.188C140.405 61.492 139.429 61.644 138.293 61.644Z" fill="#333333"/>
</g>
<path d="M11.1759 106.592L11.0159 102.688L23.7199 89.6H27.3679L17.5439 99.968L15.7519 101.952L11.1759 106.592ZM8.35988 112V89.6H11.5599V112H8.35988ZM24.2319 112L15.0479 101.312L17.1919 98.944L27.9759 112H24.2319ZM41.0336 112V108.416L40.8736 107.744V101.632C40.8736 100.331 40.4896 99.328 39.7216 98.624C38.975 97.8987 37.8443 97.536 36.3296 97.536C35.327 97.536 34.3456 97.7067 33.3856 98.048C32.4256 98.368 31.615 98.8053 30.9536 99.36L29.6736 97.056C30.5483 96.352 31.5936 95.8187 32.8096 95.456C34.047 95.072 35.3376 94.88 36.6816 94.88C39.007 94.88 40.799 95.4453 42.0576 96.576C43.3163 97.7067 43.9456 99.4347 43.9456 101.76V112H41.0336ZM35.4656 112.192C34.207 112.192 33.0976 111.979 32.1376 111.552C31.199 111.125 30.4736 110.539 29.9616 109.792C29.4496 109.024 29.1936 108.16 29.1936 107.2C29.1936 106.283 29.407 105.451 29.8336 104.704C30.2816 103.957 30.9963 103.36 31.9776 102.912C32.9803 102.464 34.3243 102.24 36.0096 102.24H41.3856V104.448H36.1376C34.6016 104.448 33.567 104.704 33.0336 105.216C32.5003 105.728 32.2336 106.347 32.2336 107.072C32.2336 107.904 32.5643 108.576 33.2256 109.088C33.887 109.579 34.8043 109.824 35.9776 109.824C37.1296 109.824 38.1323 109.568 38.9856 109.056C39.8603 108.544 40.4896 107.797 40.8736 106.816L41.4816 108.928C41.0763 109.931 40.3616 110.731 39.3376 111.328C38.3136 111.904 37.023 112.192 35.4656 112.192ZM52.1266 107.904L52.1906 103.968L61.9506 95.04H65.6626L58.1746 102.4L56.5106 103.808L52.1266 107.904ZM49.6306 112V88.256H52.7026V112H49.6306ZM62.5906 112L55.9346 103.744L57.9186 101.28L66.3666 112H62.5906ZM75.1734 112.192C73.4667 112.192 72.144 111.733 71.2054 110.816C70.2667 109.899 69.7974 108.587 69.7974 106.88V91.328H72.8694V106.752C72.8694 107.669 73.0934 108.373 73.5414 108.864C74.0107 109.355 74.672 109.6 75.5254 109.6C76.4854 109.6 77.2854 109.333 77.9254 108.8L78.8854 111.008C78.416 111.413 77.8507 111.712 77.1894 111.904C76.5494 112.096 75.8774 112.192 75.1734 112.192ZM66.9174 97.568V95.04H77.7334V97.568H66.9174ZM89.7354 112.192C88.2847 112.192 87.0047 111.925 85.8954 111.392C84.8074 110.859 83.954 110.048 83.3354 108.96C82.738 107.851 82.4394 106.464 82.4394 104.8V95.04H85.5114V104.448C85.5114 106.112 85.906 107.36 86.6954 108.192C87.506 109.024 88.6367 109.44 90.0874 109.44C91.154 109.44 92.082 109.227 92.8714 108.8C93.6607 108.352 94.2687 107.712 94.6954 106.88C95.122 106.027 95.3354 105.003 95.3354 103.808V95.04H98.4074V112H95.4954V107.424L95.9754 108.64C95.4207 109.771 94.5887 110.645 93.4794 111.264C92.37 111.883 91.122 112.192 89.7354 112.192ZM109.12 112.192C107.712 112.192 106.368 112 105.088 111.616C103.829 111.232 102.837 110.763 102.112 110.208L103.392 107.776C104.117 108.267 105.013 108.683 106.08 109.024C107.146 109.365 108.234 109.536 109.344 109.536C110.773 109.536 111.797 109.333 112.416 108.928C113.056 108.523 113.376 107.957 113.376 107.232C113.376 106.699 113.184 106.283 112.8 105.984C112.416 105.685 111.904 105.461 111.264 105.312C110.645 105.163 109.952 105.035 109.184 104.928C108.416 104.8 107.648 104.651 106.88 104.48C106.112 104.288 105.408 104.032 104.768 103.712C104.128 103.371 103.616 102.912 103.232 102.336C102.848 101.739 102.656 100.949 102.656 99.968C102.656 98.944 102.944 98.048 103.52 97.28C104.096 96.512 104.906 95.9253 105.952 95.52C107.018 95.0933 108.277 94.88 109.728 94.88C110.837 94.88 111.957 95.0187 113.088 95.296C114.24 95.552 115.178 95.9253 115.904 96.416L114.592 98.848C113.824 98.336 113.024 97.984 112.192 97.792C111.36 97.6 110.528 97.504 109.696 97.504C108.352 97.504 107.349 97.728 106.688 98.176C106.026 98.6027 105.696 99.1573 105.696 99.84C105.696 100.416 105.888 100.864 106.272 101.184C106.677 101.483 107.189 101.717 107.808 101.888C108.448 102.059 109.152 102.208 109.92 102.336C110.688 102.443 111.456 102.592 112.224 102.784C112.992 102.955 113.685 103.2 114.304 103.52C114.944 103.84 115.456 104.288 115.84 104.864C116.245 105.44 116.448 106.208 116.448 107.168C116.448 108.192 116.149 109.077 115.552 109.824C114.954 110.571 114.112 111.157 113.024 111.584C111.936 111.989 110.634 112.192 109.12 112.192ZM129.329 112V89.6H138.065C140.027 89.6 141.702 89.9093 143.089 90.528C144.475 91.1467 145.542 92.0427 146.289 93.216C147.035 94.3893 147.409 95.7867 147.409 97.408C147.409 99.0293 147.035 100.427 146.289 101.6C145.542 102.752 144.475 103.648 143.089 104.288C141.702 104.907 140.027 105.216 138.065 105.216H131.089L132.529 103.712V112H129.329ZM132.529 104.032L131.089 102.432H137.969C140.017 102.432 141.563 101.995 142.609 101.12C143.675 100.245 144.209 99.008 144.209 97.408C144.209 95.808 143.675 94.5707 142.609 93.696C141.563 92.8213 140.017 92.384 137.969 92.384H131.089L132.529 90.784V104.032ZM151.974 112V88.256H155.046V112H151.974ZM171.44 112V108.416L171.28 107.744V101.632C171.28 100.331 170.896 99.328 170.128 98.624C169.381 97.8987 168.251 97.536 166.736 97.536C165.733 97.536 164.752 97.7067 163.792 98.048C162.832 98.368 162.021 98.8053 161.36 99.36L160.08 97.056C160.955 96.352 162 95.8187 163.216 95.456C164.453 95.072 165.744 94.88 167.088 94.88C169.413 94.88 171.205 95.4453 172.464 96.576C173.723 97.7067 174.352 99.4347 174.352 101.76V112H171.44ZM165.872 112.192C164.613 112.192 163.504 111.979 162.544 111.552C161.605 111.125 160.88 110.539 160.368 109.792C159.856 109.024 159.6 108.16 159.6 107.2C159.6 106.283 159.813 105.451 160.24 104.704C160.688 103.957 161.403 103.36 162.384 102.912C163.387 102.464 164.731 102.24 166.416 102.24H171.792V104.448H166.544C165.008 104.448 163.973 104.704 163.44 105.216C162.907 105.728 162.64 106.347 162.64 107.072C162.64 107.904 162.971 108.576 163.632 109.088C164.293 109.579 165.211 109.824 166.384 109.824C167.536 109.824 168.539 109.568 169.392 109.056C170.267 108.544 170.896 107.797 171.28 106.816L171.888 108.928C171.483 109.931 170.768 110.731 169.744 111.328C168.72 111.904 167.429 112.192 165.872 112.192ZM189.093 94.88C190.48 94.88 191.696 95.1467 192.741 95.68C193.808 96.2133 194.64 97.024 195.237 98.112C195.834 99.2 196.133 100.576 196.133 102.24V112H193.061V102.592C193.061 100.949 192.656 99.712 191.845 98.88C191.056 98.048 189.936 97.632 188.485 97.632C187.397 97.632 186.448 97.8453 185.637 98.272C184.826 98.6987 184.197 99.328 183.749 100.16C183.322 100.992 183.109 102.027 183.109 103.264V112H180.037V95.04H182.981V99.616L182.501 98.4C183.056 97.2907 183.909 96.4267 185.061 95.808C186.213 95.1893 187.557 94.88 189.093 94.88ZM207.642 112.192C205.935 112.192 204.613 111.733 203.674 110.816C202.735 109.899 202.266 108.587 202.266 106.88V91.328H205.338V106.752C205.338 107.669 205.562 108.373 206.01 108.864C206.479 109.355 207.141 109.6 207.994 109.6C208.954 109.6 209.754 109.333 210.394 108.8L211.354 111.008C210.885 111.413 210.319 111.712 209.658 111.904C209.018 112.096 208.346 112.192 207.642 112.192ZM199.386 97.568V95.04H210.202V97.568H199.386Z" fill="#156963"/>
<defs>
<clipPath id="clip0_0_72">
<rect width="32" height="32" fill="white" transform="translate(412 71) rotate(-180)"/>
</clipPath>
<clipPath id="clip1_0_72">
<rect width="32" height="32" fill="white" transform="translate(-0.00012207 37)"/>
</clipPath>
</defs>
</svg>
