<svg width="234" height="32" viewBox="0 0 234 32" fill="none" xmlns="http://www.w3.org/2000/svg">
<rect x="0.5" y="0.5" width="233" height="31" rx="1.5" stroke="#F2F2F2"/>
<path opacity="0.5" d="M21.952 12.08V20H21.04V15.02L21.148 12.932H21.136L18.532 20H17.716L15.112 12.932H15.1L15.208 15.02V20H14.296V12.08H15.772L17.512 16.892L18.112 18.872H18.136L18.748 16.904L20.476 12.08H21.952ZM27.8036 16.124C27.8036 15.676 27.6836 15.332 27.4436 15.092C27.2036 14.844 26.8636 14.72 26.4236 14.72C26.0076 14.72 25.6556 14.812 25.3676 14.996C25.0796 15.172 24.8676 15.46 24.7316 15.86L23.9516 15.38C24.1116 14.932 24.4076 14.572 24.8396 14.3C25.2716 14.02 25.8076 13.88 26.4476 13.88C26.8796 13.88 27.2716 13.956 27.6236 14.108C27.9756 14.252 28.2516 14.476 28.4516 14.78C28.6596 15.076 28.7636 15.46 28.7636 15.932V18.836C28.7636 19.124 28.9156 19.268 29.2196 19.268C29.3716 19.268 29.5196 19.248 29.6636 19.208L29.6156 19.964C29.4556 20.044 29.2476 20.084 28.9916 20.084C28.7596 20.084 28.5516 20.04 28.3676 19.952C28.1836 19.864 28.0396 19.732 27.9356 19.556C27.8316 19.372 27.7796 19.144 27.7796 18.872V18.752L28.0196 18.788C27.9236 19.1 27.7596 19.356 27.5276 19.556C27.2956 19.748 27.0356 19.892 26.7476 19.988C26.4596 20.076 26.1756 20.12 25.8956 20.12C25.5436 20.12 25.2156 20.06 24.9116 19.94C24.6076 19.82 24.3636 19.64 24.1796 19.4C24.0036 19.152 23.9156 18.848 23.9156 18.488C23.9156 18.04 24.0636 17.672 24.3596 17.384C24.6636 17.088 25.0836 16.888 25.6196 16.784L27.9956 16.316V17.108L26.0636 17.504C25.6716 17.584 25.3796 17.696 25.1876 17.84C24.9956 17.984 24.8996 18.184 24.8996 18.44C24.8996 18.688 24.9956 18.892 25.1876 19.052C25.3876 19.204 25.6676 19.28 26.0276 19.28C26.2596 19.28 26.4796 19.252 26.6876 19.196C26.9036 19.132 27.0956 19.04 27.2636 18.92C27.4316 18.792 27.5636 18.636 27.6596 18.452C27.7556 18.26 27.8036 18.036 27.8036 17.78V16.124ZM33.2565 20.12C32.6725 20.12 32.1325 19.996 31.6365 19.748C31.1485 19.5 30.7725 19.148 30.5085 18.692L31.3245 18.104C31.5005 18.472 31.7565 18.76 32.0925 18.968C32.4365 19.176 32.8485 19.28 33.3285 19.28C33.7525 19.28 34.0845 19.2 34.3245 19.04C34.5645 18.872 34.6845 18.656 34.6845 18.392C34.6845 18.224 34.6285 18.072 34.5165 17.936C34.4125 17.792 34.2085 17.688 33.9045 17.624L32.4645 17.324C31.8805 17.204 31.4605 17.004 31.2045 16.724C30.9565 16.444 30.8325 16.096 30.8325 15.68C30.8325 15.352 30.9245 15.052 31.1085 14.78C31.3005 14.508 31.5685 14.292 31.9125 14.132C32.2645 13.964 32.6765 13.88 33.1485 13.88C33.7405 13.88 34.2405 13.996 34.6485 14.228C35.0565 14.46 35.3605 14.788 35.5605 15.212L34.7565 15.74C34.6205 15.388 34.4005 15.132 34.0965 14.972C33.7925 14.804 33.4765 14.72 33.1485 14.72C32.8605 14.72 32.6125 14.76 32.4045 14.84C32.2045 14.92 32.0485 15.032 31.9365 15.176C31.8325 15.312 31.7805 15.468 31.7805 15.644C31.7805 15.82 31.8405 15.984 31.9605 16.136C32.0805 16.28 32.3045 16.384 32.6325 16.448L34.1325 16.76C34.6925 16.872 35.0845 17.056 35.3085 17.312C35.5325 17.568 35.6445 17.88 35.6445 18.248C35.6445 18.624 35.5445 18.956 35.3445 19.244C35.1445 19.524 34.8645 19.74 34.5045 19.892C34.1445 20.044 33.7285 20.12 33.2565 20.12ZM39.5966 20.12C39.2126 20.12 38.8486 20.048 38.5046 19.904C38.1686 19.76 37.8926 19.528 37.6766 19.208C37.4686 18.88 37.3646 18.456 37.3646 17.936V14H38.3246V17.684C38.3246 18.292 38.4566 18.712 38.7206 18.944C38.9846 19.168 39.3566 19.28 39.8366 19.28C40.0606 19.28 40.2806 19.244 40.4966 19.172C40.7126 19.092 40.9046 18.972 41.0726 18.812C41.2486 18.644 41.3846 18.432 41.4806 18.176C41.5846 17.92 41.6366 17.616 41.6366 17.264V14H42.5966V20H41.7566L41.6966 19.088C41.4886 19.448 41.2046 19.712 40.8446 19.88C40.4926 20.04 40.0766 20.12 39.5966 20.12ZM50.0988 14L47.5068 16.592L47.2788 16.82L45.3108 18.788V17.588L48.8868 14H50.0988ZM45.7908 11.24V20H44.8308V11.24H45.7908ZM47.5908 16.1L50.2428 20H49.0788L46.7868 16.64L47.5908 16.1ZM55.0263 16.124C55.0263 15.676 54.9063 15.332 54.6663 15.092C54.4263 14.844 54.0863 14.72 53.6463 14.72C53.2303 14.72 52.8783 14.812 52.5903 14.996C52.3023 15.172 52.0903 15.46 51.9543 15.86L51.1743 15.38C51.3343 14.932 51.6303 14.572 52.0623 14.3C52.4943 14.02 53.0303 13.88 53.6703 13.88C54.1023 13.88 54.4943 13.956 54.8463 14.108C55.1983 14.252 55.4743 14.476 55.6743 14.78C55.8823 15.076 55.9863 15.46 55.9863 15.932V18.836C55.9863 19.124 56.1383 19.268 56.4423 19.268C56.5943 19.268 56.7423 19.248 56.8863 19.208L56.8383 19.964C56.6783 20.044 56.4703 20.084 56.2143 20.084C55.9823 20.084 55.7743 20.04 55.5903 19.952C55.4063 19.864 55.2623 19.732 55.1583 19.556C55.0543 19.372 55.0023 19.144 55.0023 18.872V18.752L55.2423 18.788C55.1463 19.1 54.9823 19.356 54.7503 19.556C54.5183 19.748 54.2583 19.892 53.9703 19.988C53.6823 20.076 53.3983 20.12 53.1183 20.12C52.7663 20.12 52.4383 20.06 52.1343 19.94C51.8303 19.82 51.5863 19.64 51.4023 19.4C51.2263 19.152 51.1383 18.848 51.1383 18.488C51.1383 18.04 51.2863 17.672 51.5823 17.384C51.8863 17.088 52.3063 16.888 52.8423 16.784L55.2183 16.316V17.108L53.2863 17.504C52.8943 17.584 52.6023 17.696 52.4103 17.84C52.2183 17.984 52.1223 18.184 52.1223 18.44C52.1223 18.688 52.2183 18.892 52.4103 19.052C52.6103 19.204 52.8903 19.28 53.2503 19.28C53.4823 19.28 53.7023 19.252 53.9103 19.196C54.1263 19.132 54.3183 19.04 54.4863 18.92C54.6543 18.792 54.7863 18.636 54.8823 18.452C54.9783 18.26 55.0263 18.036 55.0263 17.78V16.124ZM58.3191 20V14H59.1591L59.2431 15.344L59.0871 15.212C59.2151 14.892 59.3871 14.636 59.6031 14.444C59.8191 14.244 60.0671 14.1 60.3471 14.012C60.6351 13.924 60.9311 13.88 61.2351 13.88C61.6671 13.88 62.0591 13.964 62.4111 14.132C62.7631 14.292 63.0431 14.54 63.2511 14.876C63.4671 15.212 63.5751 15.64 63.5751 16.16V20H62.6151V16.496C62.6151 15.832 62.4711 15.372 62.1831 15.116C61.9031 14.852 61.5551 14.72 61.1391 14.72C60.8511 14.72 60.5631 14.788 60.2751 14.924C59.9871 15.06 59.7471 15.28 59.5551 15.584C59.3711 15.888 59.2791 16.296 59.2791 16.808V20H58.3191ZM75.8502 20H74.8302L73.9902 17.804H70.4022L69.5622 20H68.5542L71.6382 12.08H72.7782L75.8502 20ZM70.7502 16.904H73.6422L72.1902 13.004L70.7502 16.904ZM78.1921 11.24V18.476C78.1921 18.78 78.2481 18.992 78.3601 19.112C78.4721 19.224 78.6521 19.28 78.9001 19.28C79.0601 19.28 79.1921 19.268 79.2961 19.244C79.4001 19.22 79.5401 19.176 79.7161 19.112L79.5601 19.952C79.4321 20.008 79.2921 20.048 79.1401 20.072C78.9881 20.104 78.8321 20.12 78.6721 20.12C78.1841 20.12 77.8201 19.988 77.5801 19.724C77.3481 19.46 77.2321 19.056 77.2321 18.512V11.24H78.1921ZM84.452 16.124C84.452 15.676 84.332 15.332 84.092 15.092C83.852 14.844 83.512 14.72 83.072 14.72C82.656 14.72 82.304 14.812 82.016 14.996C81.728 15.172 81.516 15.46 81.38 15.86L80.6 15.38C80.76 14.932 81.056 14.572 81.488 14.3C81.92 14.02 82.456 13.88 83.096 13.88C83.528 13.88 83.92 13.956 84.272 14.108C84.624 14.252 84.9 14.476 85.1 14.78C85.308 15.076 85.412 15.46 85.412 15.932V18.836C85.412 19.124 85.564 19.268 85.868 19.268C86.02 19.268 86.168 19.248 86.312 19.208L86.264 19.964C86.104 20.044 85.896 20.084 85.64 20.084C85.408 20.084 85.2 20.04 85.016 19.952C84.832 19.864 84.688 19.732 84.584 19.556C84.48 19.372 84.428 19.144 84.428 18.872V18.752L84.668 18.788C84.572 19.1 84.408 19.356 84.176 19.556C83.944 19.748 83.684 19.892 83.396 19.988C83.108 20.076 82.824 20.12 82.544 20.12C82.192 20.12 81.864 20.06 81.56 19.94C81.256 19.82 81.012 19.64 80.828 19.4C80.652 19.152 80.564 18.848 80.564 18.488C80.564 18.04 80.712 17.672 81.008 17.384C81.312 17.088 81.732 16.888 82.268 16.784L84.644 16.316V17.108L82.712 17.504C82.32 17.584 82.028 17.696 81.836 17.84C81.644 17.984 81.548 18.184 81.548 18.44C81.548 18.688 81.644 18.892 81.836 19.052C82.036 19.204 82.316 19.28 82.676 19.28C82.908 19.28 83.128 19.252 83.336 19.196C83.552 19.132 83.744 19.04 83.912 18.92C84.08 18.792 84.212 18.636 84.308 18.452C84.404 18.26 84.452 18.036 84.452 17.78V16.124ZM87.7449 20V14H88.5849L88.6449 14.936C88.8609 14.568 89.1409 14.3 89.4849 14.132C89.8369 13.964 90.1969 13.88 90.5649 13.88C90.9889 13.88 91.3889 13.976 91.7649 14.168C92.1409 14.36 92.4289 14.656 92.6289 15.056C92.7569 14.784 92.9369 14.564 93.1689 14.396C93.4009 14.22 93.6529 14.092 93.9249 14.012C94.2049 13.924 94.4689 13.88 94.7169 13.88C95.1009 13.88 95.4649 13.96 95.8089 14.12C96.1609 14.28 96.4489 14.528 96.6729 14.864C96.8969 15.2 97.0089 15.632 97.0089 16.16V20H96.0489V16.256C96.0489 15.712 95.9129 15.32 95.6409 15.08C95.3689 14.84 95.0329 14.72 94.6329 14.72C94.3209 14.72 94.0289 14.796 93.7569 14.948C93.4849 15.1 93.2649 15.324 93.0969 15.62C92.9369 15.916 92.8569 16.28 92.8569 16.712V20H91.8969V16.256C91.8969 15.712 91.7609 15.32 91.4889 15.08C91.2169 14.84 90.8809 14.72 90.4809 14.72C90.2169 14.72 89.9449 14.792 89.6649 14.936C89.3929 15.072 89.1649 15.292 88.9809 15.596C88.7969 15.9 88.7049 16.3 88.7049 16.796V20H87.7449ZM102.686 16.124C102.686 15.676 102.566 15.332 102.326 15.092C102.086 14.844 101.746 14.72 101.306 14.72C100.89 14.72 100.538 14.812 100.25 14.996C99.9624 15.172 99.7504 15.46 99.6144 15.86L98.8344 15.38C98.9944 14.932 99.2904 14.572 99.7224 14.3C100.154 14.02 100.69 13.88 101.33 13.88C101.762 13.88 102.154 13.956 102.506 14.108C102.858 14.252 103.134 14.476 103.334 14.78C103.542 15.076 103.646 15.46 103.646 15.932V18.836C103.646 19.124 103.798 19.268 104.102 19.268C104.254 19.268 104.402 19.248 104.546 19.208L104.498 19.964C104.338 20.044 104.13 20.084 103.874 20.084C103.642 20.084 103.434 20.04 103.25 19.952C103.066 19.864 102.922 19.732 102.818 19.556C102.714 19.372 102.662 19.144 102.662 18.872V18.752L102.902 18.788C102.806 19.1 102.642 19.356 102.41 19.556C102.178 19.748 101.918 19.892 101.63 19.988C101.342 20.076 101.058 20.12 100.778 20.12C100.426 20.12 100.098 20.06 99.7944 19.94C99.4904 19.82 99.2464 19.64 99.0624 19.4C98.8864 19.152 98.7984 18.848 98.7984 18.488C98.7984 18.04 98.9464 17.672 99.2424 17.384C99.5464 17.088 99.9664 16.888 100.502 16.784L102.878 16.316V17.108L100.946 17.504C100.554 17.584 100.262 17.696 100.07 17.84C99.8784 17.984 99.7824 18.184 99.7824 18.44C99.7824 18.688 99.8784 18.892 100.07 19.052C100.27 19.204 100.55 19.28 100.91 19.28C101.142 19.28 101.362 19.252 101.57 19.196C101.786 19.132 101.978 19.04 102.146 18.92C102.314 18.792 102.446 18.636 102.542 18.452C102.638 18.26 102.686 18.036 102.686 17.78V16.124ZM107.161 12.296V18.344C107.161 18.64 107.245 18.86 107.413 19.004C107.581 19.148 107.797 19.22 108.061 19.22C108.293 19.22 108.493 19.18 108.661 19.1C108.829 19.02 108.981 18.912 109.117 18.776L109.453 19.58C109.269 19.748 109.049 19.88 108.793 19.976C108.545 20.072 108.257 20.12 107.929 20.12C107.625 20.12 107.341 20.068 107.077 19.964C106.813 19.852 106.601 19.68 106.441 19.448C106.289 19.208 106.209 18.896 106.201 18.512V12.56L107.161 12.296ZM109.345 14V14.828H105.001V14H109.345ZM115.042 20V12.08H120.598V12.98H116.002V15.536H119.578V16.436H116.002V19.1H120.778V20H115.042ZM122.514 20V14H123.354L123.414 14.936C123.63 14.568 123.91 14.3 124.254 14.132C124.606 13.964 124.966 13.88 125.334 13.88C125.758 13.88 126.158 13.976 126.534 14.168C126.91 14.36 127.198 14.656 127.398 15.056C127.526 14.784 127.706 14.564 127.938 14.396C128.17 14.22 128.422 14.092 128.694 14.012C128.974 13.924 129.238 13.88 129.486 13.88C129.87 13.88 130.234 13.96 130.578 14.12C130.93 14.28 131.218 14.528 131.442 14.864C131.666 15.2 131.778 15.632 131.778 16.16V20H130.818V16.256C130.818 15.712 130.682 15.32 130.41 15.08C130.138 14.84 129.802 14.72 129.402 14.72C129.09 14.72 128.798 14.796 128.526 14.948C128.254 15.1 128.034 15.324 127.866 15.62C127.706 15.916 127.626 16.28 127.626 16.712V20H126.666V16.256C126.666 15.712 126.53 15.32 126.258 15.08C125.986 14.84 125.65 14.72 125.25 14.72C124.986 14.72 124.714 14.792 124.434 14.936C124.162 15.072 123.934 15.292 123.75 15.596C123.566 15.9 123.474 16.3 123.474 16.796V20H122.514ZM137.456 16.124C137.456 15.676 137.336 15.332 137.096 15.092C136.856 14.844 136.516 14.72 136.076 14.72C135.66 14.72 135.308 14.812 135.02 14.996C134.732 15.172 134.52 15.46 134.384 15.86L133.604 15.38C133.764 14.932 134.06 14.572 134.492 14.3C134.924 14.02 135.46 13.88 136.1 13.88C136.532 13.88 136.924 13.956 137.276 14.108C137.628 14.252 137.904 14.476 138.104 14.78C138.312 15.076 138.416 15.46 138.416 15.932V18.836C138.416 19.124 138.568 19.268 138.872 19.268C139.024 19.268 139.172 19.248 139.316 19.208L139.268 19.964C139.108 20.044 138.9 20.084 138.644 20.084C138.412 20.084 138.204 20.04 138.02 19.952C137.836 19.864 137.692 19.732 137.588 19.556C137.484 19.372 137.432 19.144 137.432 18.872V18.752L137.672 18.788C137.576 19.1 137.412 19.356 137.18 19.556C136.948 19.748 136.688 19.892 136.4 19.988C136.112 20.076 135.828 20.12 135.548 20.12C135.196 20.12 134.868 20.06 134.564 19.94C134.26 19.82 134.016 19.64 133.832 19.4C133.656 19.152 133.568 18.848 133.568 18.488C133.568 18.04 133.716 17.672 134.012 17.384C134.316 17.088 134.736 16.888 135.272 16.784L137.648 16.316V17.108L135.716 17.504C135.324 17.584 135.032 17.696 134.84 17.84C134.648 17.984 134.552 18.184 134.552 18.44C134.552 18.688 134.648 18.892 134.84 19.052C135.04 19.204 135.32 19.28 135.68 19.28C135.912 19.28 136.132 19.252 136.34 19.196C136.556 19.132 136.748 19.04 136.916 18.92C137.084 18.792 137.216 18.636 137.312 18.452C137.408 18.26 137.456 18.036 137.456 17.78V16.124ZM141.229 12.848C141.013 12.848 140.837 12.784 140.701 12.656C140.573 12.52 140.509 12.344 140.509 12.128C140.509 11.912 140.573 11.74 140.701 11.612C140.837 11.476 141.013 11.408 141.229 11.408C141.445 11.408 141.617 11.476 141.745 11.612C141.881 11.74 141.949 11.912 141.949 12.128C141.949 12.344 141.881 12.52 141.745 12.656C141.617 12.784 141.445 12.848 141.229 12.848ZM141.709 14V20H140.749V14H141.709ZM144.848 11.24V18.476C144.848 18.78 144.904 18.992 145.016 19.112C145.128 19.224 145.308 19.28 145.556 19.28C145.716 19.28 145.848 19.268 145.952 19.244C146.056 19.22 146.196 19.176 146.372 19.112L146.216 19.952C146.088 20.008 145.948 20.048 145.796 20.072C145.644 20.104 145.488 20.12 145.328 20.12C144.84 20.12 144.476 19.988 144.236 19.724C144.004 19.46 143.888 19.056 143.888 18.512V11.24H144.848Z" fill="black"/>
</svg>
